<?xml version="1.0" standalone="no"?>
<!DOCTYPE svg PUBLIC "-//W3C//DTD SVG 20010904//EN"
 "http://www.w3.org/TR/2001/REC-SVG-20010904/DTD/svg10.dtd">
<svg version="1.0" xmlns="http://www.w3.org/2000/svg"
 width="1108.000000pt" height="815.000000pt" viewBox="0 0 1108.000000 815.000000"
 preserveAspectRatio="xMidYMid meet">

<g transform="translate(0.000000,815.000000) scale(0.100000,-0.100000)"
fill="#000000" stroke="none">
<path d="M5250 8125 c-629 -60 -1137 -225 -1667 -541 -353 -212 -701 -516
-970 -849 -75 -94 -273 -369 -273 -380 0 -3 -31 -58 -68 -123 -120 -207 -219
-426 -302 -672 -32 -95 -89 -284 -94 -315 -2 -11 -13 -65 -25 -121 -64 -319
-91 -669 -72 -949 6 -94 14 -185 17 -202 l5 -33 1059 0 1060 0 0 929 c0 567 4
940 10 955 10 26 46 55 77 61 10 2 57 4 106 4 63 1 87 4 87 14 0 7 15 44 34
82 41 86 104 149 191 193 36 19 65 37 65 41 0 4 -10 16 -21 27 -12 10 -35 46
-50 79 -27 55 -29 70 -29 172 0 92 4 124 25 185 14 40 25 75 25 77 0 12 175
-14 239 -35 127 -42 183 -89 234 -194 28 -58 31 -73 31 -165 1 -55 -2 -111 -6
-125 l-7 -25 117 0 c110 0 121 -2 182 -32 84 -40 149 -106 196 -199 l38 -74
30 47 c17 27 33 50 36 53 3 3 10 12 15 21 84 134 215 290 392 467 90 89 167
162 173 162 5 0 33 18 62 40 29 22 90 56 136 75 76 33 90 36 180 36 53 0 113
-5 132 -11 19 -5 36 -10 37 -10 2 0 3 43 3 95 l0 95 100 0 100 0 0 -150 0
-150 150 0 150 0 0 -100 0 -100 -96 0 c-88 0 -96 -2 -89 -17 20 -52 28 -148
17 -218 -17 -109 -64 -203 -165 -331 l-48 -61 1 -953 c0 -525 2 -955 4 -957 5
-5 2489 -3 2494 2 25 25 35 575 14 765 -20 176 -41 315 -64 420 -11 52 -22
104 -24 115 -9 55 -82 293 -130 425 -59 160 -152 362 -236 515 -307 552 -742
1016 -1273 1357 -490 314 -1047 509 -1640 573 -202 22 -502 27 -675 10z"/>
<path d="M6430 6601 c-37 -11 -88 -38 -142 -74 l-48 -32 92 -92 93 -93 -70
-70 c-38 -38 -74 -70 -80 -70 -5 0 -51 41 -102 92 -79 79 -94 90 -107 78 -9
-7 -16 -16 -16 -21 0 -5 25 -33 55 -63 30 -29 55 -58 55 -63 0 -14 -124 -133
-140 -133 -8 0 -37 23 -65 50 l-51 50 -55 -67 c-30 -38 -76 -98 -103 -135
l-47 -68 408 -2 408 -3 56 55 c75 74 161 192 193 264 31 69 34 141 9 194 -22
48 -147 173 -195 195 -37 18 -104 21 -148 8z"/>
<path d="M4599 6518 c-5 -41 5 -105 20 -125 13 -20 98 -73 116 -73 3 0 5 24 5
53 0 70 -26 112 -86 137 -54 24 -54 24 -55 8z"/>
<path d="M4128 5670 c-1 -5 -2 -361 0 -790 l2 -780 1225 0 1225 0 0 790 0 790
-1224 0 c-807 0 -1225 -3 -1228 -10z m2253 -109 c23 -5 41 -18 56 -40 l23 -34
0 -599 c0 -653 0 -647 -56 -668 -16 -6 -426 -10 -1063 -10 l-1037 0 -32 31
-32 31 0 618 0 617 26 26 c14 14 38 28 52 30 46 7 2026 6 2063 -2z"/>
<path d="M4446 5335 c-4 -14 -6 -226 -6 -470 l1 -445 100 0 99 0 0 470 0 470
-94 0 c-92 0 -94 0 -100 -25z"/>
<path d="M4850 4890 l0 -470 95 0 95 0 0 470 0 470 -95 0 -95 0 0 -470z"/>
<path d="M5250 4890 l0 -470 100 0 100 0 0 470 0 470 -100 0 -100 0 0 -470z"/>
<path d="M5650 4890 l0 -470 100 0 100 0 0 470 0 470 -100 0 -100 0 0 -470z"/>
<path d="M6050 4890 l0 -470 100 0 100 0 0 470 0 470 -100 0 -100 0 0 -470z"/>
<path d="M2870 1720 c129 -127 195 -187 305 -276 87 -71 369 -274 379 -274 2
0 55 -30 117 -67 104 -60 151 -84 364 -183 183 -85 547 -201 750 -240 264 -50
546 -80 755 -80 253 0 614 44 885 109 162 39 489 147 577 192 21 11 44 19 53
19 8 0 15 5 15 10 0 6 7 10 15 10 21 0 186 84 335 170 294 170 545 363 780
600 l95 95 -2755 0 -2755 0 85 -85z"/>
<path d="M8491 1714 c-57 -48 -42 -76 89 -164 56 -36 78 -46 91 -40 34 19 30
41 -18 99 -63 75 -115 131 -124 131 -4 0 -21 -12 -38 -26z"/>
<path d="M8706 1499 c-30 -36 -31 -42 -10 -63 22 -23 32 -20 65 15 32 34 35
49 17 67 -20 20 -45 14 -72 -19z"/>
<path d="M8425 1470 c-120 -79 -124 -218 -8 -266 93 -39 222 73 197 172 -7 29
-30 32 -39 5 -11 -35 -61 -81 -89 -81 -28 0 -34 14 -12 27 22 12 76 84 76 100
0 22 -47 63 -72 63 -13 0 -36 -9 -53 -20z m43 -97 c3 -23 -22 -48 -38 -38 -19
11 -28 49 -18 68 8 17 12 17 31 4 12 -8 23 -23 25 -34z"/>
<path d="M8145 1222 c-52 -37 -60 -49 -75 -99 -11 -37 -10 -46 9 -86 27 -56
75 -82 133 -73 47 8 103 47 124 87 14 29 19 91 8 102 -4 4 -28 -16 -53 -43
-28 -30 -56 -50 -68 -50 -36 0 -35 17 2 46 20 15 43 41 52 57 14 27 13 32 -5
56 -28 38 -77 40 -127 3z m49 -58 c22 -21 20 -37 -6 -53 -19 -12 -23 -11 -35
5 -33 45 2 87 41 48z"/>
<path d="M7769 1081 c-64 -41 -90 -73 -96 -120 -5 -35 -2 -44 26 -72 l32 -31
97 3 c91 4 97 3 97 -16 0 -15 -16 -25 -70 -45 -75 -27 -92 -50 -54 -71 53 -28
178 16 234 83 34 41 40 70 20 111 -23 49 -58 61 -158 53 -87 -6 -111 0 -105
30 4 22 39 41 88 49 52 8 67 20 51 39 -23 28 -109 21 -162 -13z"/>
<path d="M7235 770 c-47 -22 -65 -37 -88 -70 -25 -36 -21 -59 17 -94 30 -29
32 -34 20 -51 -8 -10 -14 -37 -14 -60 0 -60 42 -99 109 -99 54 0 142 38 195
84 19 17 48 29 76 33 54 7 81 34 53 54 -9 7 -24 13 -34 13 -12 0 -18 13 -22
52 -8 61 -17 73 -51 64 -22 -5 -26 -12 -26 -41 0 -19 -2 -35 -5 -35 -8 0 -85
32 -85 35 0 2 4 15 10 29 12 31 -4 82 -30 96 -29 16 -81 11 -125 -10z m51 -65
c9 -14 14 -32 10 -40 -9 -24 -45 -18 -58 9 -23 51 18 77 48 31z m77 -172 c15
-7 27 -16 27 -18 0 -2 -13 -11 -29 -20 -40 -20 -81 -6 -81 28 0 41 18 43 83
10z"/>
<path d="M6793 477 c-69 -26 -103 -71 -103 -138 0 -86 80 -143 168 -120 51 14
107 61 116 98 10 39 -6 46 -44 18 -47 -32 -80 -39 -105 -21 -19 14 -19 15 10
26 85 33 100 44 103 77 6 63 -60 91 -145 60z m53 -64 c7 -27 -14 -53 -43 -53
-14 0 -19 61 -6 73 16 17 43 6 49 -20z"/>
<path d="M6439 457 c-30 -21 -34 -28 -32 -62 2 -23 -3 -45 -12 -55 -19 -20
-10 -50 14 -50 13 0 22 -16 34 -60 20 -70 48 -100 94 -100 47 0 81 26 95 72
10 33 9 41 -4 55 -15 14 -17 13 -27 -6 -18 -33 -38 -25 -49 19 -10 41 -6 50
31 63 37 13 9 59 -34 55 -19 -3 -25 4 -36 45 -8 26 -20 47 -27 47 -7 0 -28
-10 -47 -23z"/>
<path d="M5423 383 c-30 -6 -46 -28 -38 -53 8 -24 42 -40 86 -40 l29 0 0 -118
c0 -137 10 -162 64 -162 19 0 38 6 44 13 6 7 13 66 16 132 3 66 5 123 6 128 0
4 13 7 29 7 55 0 81 16 81 50 0 24 -6 33 -26 40 -24 10 -246 12 -291 3z"/>
<path d="M6142 313 c-46 -22 -71 -73 -52 -107 14 -28 56 -46 106 -46 18 0 36
-5 40 -11 12 -19 -19 -29 -72 -23 -61 7 -77 -7 -45 -40 17 -17 33 -21 79 -21
100 1 174 56 158 118 -8 32 -34 48 -106 62 -36 8 -55 17 -55 26 0 15 47 17 98
4 22 -6 27 -4 27 10 0 10 -8 24 -17 31 -25 19 -121 17 -161 -3z"/>
<path d="M5918 274 c-13 -13 -20 -14 -37 -4 -12 6 -41 10 -64 8 -55 -4 -87
-48 -87 -119 0 -108 59 -163 145 -134 24 9 56 13 70 9 33 -8 71 2 79 21 8 23
-12 206 -25 222 -16 18 -61 16 -81 -3z m-14 -85 c18 -90 -6 -138 -46 -90 -20
26 -24 91 -6 109 22 22 45 14 52 -19z"/>
</g>
</svg>
